<svg xmlns="http://www.w3.org/2000/svg" xmlns:xlink="http://www.w3.org/1999/xlink" width="256" height="256" fill="none" xmlns:v="https://vecta.io/nano"><g stroke="#fff" stroke-width="8" stroke-linecap="round" stroke-linejoin="round"><path d="M80 210.5a21 21 0 0 1-14 5.5c-12.2 0-22-10.7-22-24s9.8-24 22-24a21 21 0 0 1 14 5.5"/><use xlink:href="#B"/><use xlink:href="#B" x="64"/><path d="M48 128V40a8 8 0 0 1 8-8h96l56 56v40"/><path d="M152 32v56h56"/></g><defs ><path id="B" d="M112 212c4.334 3.233 9.593 4.986 15 5 9 0 17-3 17-13 0-16-32-9-32-24 0-8 6-13 15-13 5.407.014 10.666 1.767 15 5"/></defs></svg>