<svg xmlns="http://www.w3.org/2000/svg" width="79" height="74" fill="none" xmlns:v="https://vecta.io/nano"><path d="M40.668 73.27h-2.34a.99.99 0 0 0-.327-.046l-3.718-.303a40.95 40.95 0 0 1-6.761-1.398c-3.777-1.122-7.296-2.733-10.558-4.831-3.024-1.951-5.7-4.251-8.03-6.901-2.747-3.11-4.887-6.543-6.405-10.314C1.171 46.127.358 42.659.109 39.079c-.009-.193-.04-.386-.109-.58v-3.782c.069-.166.099-.341.109-.515.049-.856.148-1.712.268-2.558.595-4.085 1.903-7.96 3.916-11.631 1.388-2.531 3.074-4.885 5.055-7.058a38.54 38.54 0 0 1 6.602-5.76c3.976-2.742 8.348-4.721 13.126-5.934 2.319-.588 4.69-.975 7.088-1.159.426-.037.873-.009 1.299-.102h4.005c.307.083.624.037.931.064 1.587.129 3.163.313 4.728.598 4.927.902 9.497 2.614 13.721 5.143 3.282 1.96 6.176 4.324 8.704 7.075 2.033 2.208 3.757 4.61 5.165 7.204 1.666 3.064 2.855 6.275 3.53 9.652.356 1.785.625 3.588.634 5.411 0 .12.029.249.04.368v2.171c-.04.137-.04.285-.049.432 0 .349 0 .7-.029 1.049-.179 2.227-.555 4.426-1.151 6.597-1.14 4.077-2.975 7.858-5.523 11.345-1.894 2.595-4.104 4.932-6.642 7.002-2.528 2.061-5.294 3.8-8.298 5.207a41.07 41.07 0 0 1-10.916 3.358 42.13 42.13 0 0 1-4.431.478c-.392.042-.808.033-1.215.115h0zM24.717 55.787c.654.019 1.388-.056 2.122-.202 2.172-.442 4.016-1.361 5.433-2.99.862-.993 1.587-2.07 2.212-3.202.734-1.334 1.348-2.724 1.883-4.131.654-1.702 1.209-3.441 1.636-5.199.238-.985-.029-1.602-1.2-1.941-1.487-.432-2.984-.819-4.511-1.132-2.528-.515-5.075-.846-7.674-.764a17.58 17.58 0 0 0-2.192.22c-2.102.341-3.886 1.242-5.344 2.668-2.489 2.429-3.479 5.328-2.865 8.631.882 4.721 5.384 8.079 10.499 8.041h0zm4.193-33.842c-.029.69.11 1.444.338 2.199.436 1.436 1.16 2.751 2.012 3.993 1.943 2.826 4.392 5.245 7.049 7.49a2.99 2.99 0 0 0 .754.459c.278.129.555.129.842.019a2.21 2.21 0 0 0 .734-.469c.922-.846 1.834-1.693 2.707-2.568 1.229-1.242 2.4-2.521 3.461-3.892.962-1.242 1.824-2.549 2.458-3.966.634-1.408.942-2.861.734-4.389-.347-2.521-1.507-4.656-3.579-6.331-2.451-1.977-5.305-2.768-8.518-2.327-5.225.718-9.013 4.988-8.993 9.782h0zm25.756 33.787c.258-.009.723 0 1.189-.064 3.132-.432 5.611-1.841 7.356-4.306a9.07 9.07 0 0 0 1.666-6.404c-.238-2.163-1.18-4.058-2.776-5.65-1.388-1.38-3.044-2.337-5.046-2.742-1.101-.22-2.221-.313-3.34-.331-1.328-.019-2.646.092-3.956.258-2.617.341-5.176.92-7.692 1.656-.258.073-.495.185-.703.341-.268.202-.416.451-.416.773 0 .276.029.553.099.829l.457 1.648c.734 2.485 1.625 4.914 2.845 7.233.703 1.334 1.518 2.595 2.559 3.727.793.856 1.715 1.555 2.816 2.043a11.22 11.22 0 0 0 4.944.991z" fill="#fff"/></svg>