<svg xmlns="http://www.w3.org/2000/svg" width="256" height="256" fill="none" stroke="#fff" stroke-width="8" stroke-linejoin="round" xmlns:v="https://vecta.io/nano"><path d="M162 162c18.778 0 34-15.222 34-34s-15.222-34-34-34-34 15.222-34 34 15.222 34 34 34zm-34-68V26H94a34 34 0 1 0 0 68h34z"/><path d="M128 162V94H94a34 34 0 0 0-24.042 9.958C63.582 110.335 60 118.983 60 128s3.582 17.665 9.958 24.042A34 34 0 0 0 94 162h34z"/><path d="M128 94V26h34c9.017 0 17.665 3.582 24.042 9.958A34 34 0 0 1 162 94h-34zm0 68v34c0 6.725-1.994 13.298-5.73 18.889a34 34 0 0 1-52.312 5.153c-4.755-4.755-7.993-10.814-9.305-17.409A34 34 0 0 1 94 162h34z"/></svg>