<svg xmlns="http://www.w3.org/2000/svg" width="78" height="78" fill="none" xmlns:v="https://vecta.io/nano"><g clip-path="url(#A)"><path d="M76.527 35.528L42.472 1.474c-1.96-1.962-5.141-1.962-7.104 0l-7.071 7.072 8.97 8.97c2.085-.704 4.475-.232 6.137 1.43 1.671 1.672 2.14 4.083 1.417 6.175l8.646 8.645c2.092-.721 4.504-.255 6.176 1.418 2.334 2.334 2.334 6.117 0 8.452a5.98 5.98 0 0 1-9.755-6.501l-8.064-8.063v21.218a6.02 6.02 0 0 1 1.58 1.13 5.98 5.98 0 0 1 0 8.454 5.98 5.98 0 0 1-8.452 0 5.98 5.98 0 0 1 0-8.454 5.97 5.97 0 0 1 1.958-1.304V28.704c-.713-.292-1.379-.724-1.958-1.304-1.768-1.767-2.193-4.363-1.287-6.534l-8.843-8.844L1.471 35.37c-1.961 1.963-1.961 5.144 0 7.106l34.056 34.053c1.961 1.961 5.141 1.961 7.104 0l33.896-33.896c1.962-1.962 1.962-5.144 0-7.106" fill="#fff"/></g><defs><clipPath id="A"><path fill="#fff" d="M0 0h78v78H0z"/></clipPath></defs></svg>