<svg xmlns="http://www.w3.org/2000/svg" width="35" height="35" fill="#fff" xmlns:v="https://vecta.io/nano"><path d="M21.28 28h-2.8-2.8v-2.8c-3.85.84-4.9-2.1-4.9-2.1-.7-1.4-1.4-2.1-1.4-2.1-1.4-.84 0-.7 0-.7 1.4 0 2.1 1.4 2.1 1.4 1.26 2.1 3.43 1.75 4.2 1.4 0-.7.28-1.75.7-2.1-3.08-.35-5.6-2.1-5.6-5.6s.7-4.2 1.4-4.9c-.14-.35-.7-1.61 0-3.5 0 0 1.4 0 2.8 2.1.7-.7 2.8-.7 3.5-.7s2.8 0 3.5.7c1.4-2.1 2.8-2.1 2.8-2.1.77 1.89.14 3.15 0 3.5.7.7 1.4 1.4 1.4 4.9s-2.52 5.25-5.6 5.6c.42.35.7 1.54.7 2.1V28zM17.5.699a16.76 16.76 0 0 0-16.8 16.8 16.76 16.76 0 0 0 16.8 16.8 16.76 16.76 0 0 0 16.8-16.8A16.76 16.76 0 0 0 17.5.699zm0 30.1c-7.35 0-13.3-5.95-13.3-13.3s5.95-13.3 13.3-13.3 13.3 5.95 13.3 13.3-5.95 13.3-13.3 13.3z"/></svg>