<svg xmlns="http://www.w3.org/2000/svg" xmlns:xlink="http://www.w3.org/1999/xlink" width="24" height="24" fill="none" xmlns:v="https://vecta.io/nano"><g fill="#fff"><path d="M12 23.5a1.93 1.93 0 0 1-1-.3l-4.6-2.7c-.5-.3-.9-.8-.9-1.4L4 9.1c0-.6.1-1.1.5-1.6.4-.4.9-.7 1.5-.7h12.1c.6 0 1.1.2 1.4.7.4.5.5 1 .5 1.6l-1.4 10.1c-.1.6-.4 1.1-.9 1.4L13 23.2a1.93 1.93 0 0 1-1 .3zM5.9 7.9a1.08 1.08 0 0 0-.7.3c-.1.2-.2.5-.2.7L6.4 19c0 .3.2.5.5.7l4.6 2.7c.3.2.6.2.9 0l4.6-2.7c.2-.1.4-.4.5-.7L19 8.9c0-.3 0-.5-.2-.7s-.4-.3-.7-.3H5.9h0zm2.6 6.8c-.2 0-.5-.2-.5-.4l-.5-3.6c0-.1 0-.3.1-.4s.2-.2.4-.2h8a.47.47 0 0 1 .5.5.47.47 0 0 1-.5.5H8.5l.4 3c.1.3-.1.5-.4.6zm3.5 4.9c-.1 0-.2 0-.2-.1l-3.1-1.8c-.1-.1-.2-.2-.2-.4l-.1-1c0-.3.2-.5.4-.6.3 0 .5.2.6.4v.9l2.6 1.5 2.6-1.5.4-2.9c0-.3.3-.5.6-.4.3 0 .5.3.4.6l-.4 3.1c0 .2-.1.3-.2.4l-3.1 1.8H12z"/><path d="M15.5 14.7h-7a.47.47 0 0 1-.5-.5.47.47 0 0 1 .5-.5h7.1a.47.47 0 0 1 .5.5c0 .3-.3.5-.6.5zm-8.3-11H5.1a.47.47 0 0 1-.5-.5V1a.47.47 0 0 1 .5-.5.47.47 0 0 1 .5.5v1.7h1.2V1a.47.47 0 0 1 .5-.5c.3 0 .4.2.4.5v2.2a.47.47 0 0 1-.5.5z"/><path d="M7.2 5.9c-.2 0-.5-.3-.5-.5V3.7H5.6v1.7a.47.47 0 0 1-.5.5c-.3 0-.5-.3-.5-.5V3.2a.47.47 0 0 1 .5-.5h2.2a.47.47 0 0 1 .5.5v2.2c-.1.2-.3.5-.6.5zm3.6-4.4H8.6a.47.47 0 0 1-.5-.5.47.47 0 0 1 .5-.5h2.2a.47.47 0 0 1 .5.5.47.47 0 0 1-.5.5z"/><path d="M9.699 3.7a.47.47 0 0 1-.5-.5V1a.47.47 0 0 1 .5-.5.47.47 0 0 1 .5.5v2.2a.47.47 0 0 1-.5.5z"/><use xlink:href="#B"/><path d="M16.799 3.7a.47.47 0 0 1-.5-.5V1a.47.47 0 0 1 .5-.5.47.47 0 0 1 .5.5v2.2c0 .3-.3.5-.5.5z"/><path d="M18.899 5.9h-2.2a.47.47 0 0 1-.5-.5V3.2a.47.47 0 0 1 .5-.5.47.47 0 0 1 .5.5v1.7h1.7a.47.47 0 0 1 .5.5.47.47 0 0 1-.5.5zM12.1 3.7a.47.47 0 0 1-.5-.5V1a.47.47 0 0 1 .5-.5h4.6a.47.47 0 0 1 .5.5c0 .3-.2.5-.4.5h-4.1v1.7c-.1.3-.3.5-.6.5z"/><use xlink:href="#B" x="2.401"/><path d="M14.399 3.7a.47.47 0 0 1-.5-.5V1a.47.47 0 0 1 .5-.5.47.47 0 0 1 .5.5v2.2a.47.47 0 0 1-.5.5z"/><use xlink:href="#B" x="4.7"/></g><defs ><path id="B" d="M9.699 5.9a.47.47 0 0 1-.5-.5V3.2a.47.47 0 0 1 .5-.5.47.47 0 0 1 .5.5v2.2c0 .2-.2.5-.5.5z"/></defs></svg>