<svg xmlns="http://www.w3.org/2000/svg" viewBox="0 0 24 24" xmlns:v="https://vecta.io/nano"><path d="M11.103 10.438a1.786 1.786 0 1 0 2.44.654 1.786 1.786 0 0 0-2.44-.654zm8.005 1.938q-.176-.201-.371-.403.136-.143.264-.286c1.606-1.804 2.284-3.614 1.656-4.702-.602-1.043-2.393-1.354-4.636-.918q-.331.065-.659.146-.063-.216-.133-.43C14.467 3.49 13.238 1.999 11.982 2c-1.204.001-2.368 1.397-3.111 3.558q-.11.32-.203.645-.219-.054-.44-.099c-2.366-.486-4.272-.166-4.898.923-.601 1.044.028 2.75 1.529 4.472q.223.256.459.5l-.525.572c-1.465 1.698-2.057 3.376-1.457 4.415.62 1.073 2.499 1.424 4.785.974q.278-.055.553-.124.101.352.221.697C9.634 20.649 10.792 22 11.992 22c1.239-.001 2.482-1.453 3.235-3.659l.169-.542q.355.088.715.157c2.203.417 3.953.089 4.551-.951.618-1.074-.019-2.876-1.554-4.63zM4.07 7.452c.386-.67 1.943-.931 3.986-.512q.196.04.398.09a20.464 20.464 0 0 0-.421 2.678 20.887 20.887 0 0 0-2.104 1.694q-.219-.227-.427-.465h0C4.216 9.461 3.708 8.081 4.07 7.452zm3.887 5.728l-1.416-1.181c.43-.396.905-.791 1.415-1.176q-.027.589-.027 1.179 0 .589.028 1.178zm-.001 3.941a7.237 7.237 0 0 1-2.64.093 1.766 1.766 0 0 1-1.241-.656c-.364-.631.112-1.978 1.364-3.43q.236-.273.488-.532a20.49 20.49 0 0 0 2.107 1.7 20.802 20.802 0 0 0 .426 2.712q-.251.063-.505.113zm7.101-8.039q-.503-.317-1.019-.614-.507-.292-1.027-.562l1.739-.636a18.218 18.218 0 0 1 .307 1.812zM9.679 5.835c.636-1.851 1.578-2.981 2.304-2.981.773 0 1.778 1.218 2.434 3.198q.064.194.121.389a20.478 20.478 0 0 0-2.527.971 20.061 20.061 0 0 0-2.519-.982q.086-.3.187-.595zm-.4 1.424a18.307 18.307 0 0 1 1.73.642q-1.051.542-2.047 1.181l.318-1.823zm-.316 7.661q.497.318 1.008.613.522.3 1.057.576a18.196 18.196 0 0 1-1.744.665c-.132-.582-.24-1.204-.321-1.853zm5.456 3.146a7.236 7.236 0 0 1-1.238 2.333h0a1.766 1.766 0 0 1-1.188.747c-.728 0-1.658-1.085-2.29-2.895q-.112-.321-.206-.648a20.109 20.109 0 0 0 2.529-1.01 20.8 20.8 0 0 0 2.547.979q-.071.249-.155.494zm.362-1.324c-.569-.176-1.161-.393-1.762-.646q.509-.268 1.025-.565.53-.306 1.032-.627a18.152 18.152 0 0 1-.295 1.838zm.446-4.743q.001.911-.057 1.82l-1.554.971-1.597.856q-.827-.396-1.622-.854-.79-.455-1.545-.969-.069-.909-.069-1.822h0q-.001-.912.068-1.822l1.543-.97 1.615-.852q.817.397 1.604.851.79.454 1.549.959.065.914.065 1.832zm.957-5.093c1.921-.374 3.37-.122 3.733.506.387.67-.167 2.149-1.554 3.706h0q-.115.129-.238.259a20.061 20.061 0 0 0-2.144-1.688 20.041 20.041 0 0 0-.405-2.649q.31-.076.609-.135zm-.13 3.885a18.164 18.164 0 0 1 1.461 1.188 18.119 18.119 0 0 1-1.457 1.208q.023-.594.023-1.188 0-.604-.028-1.208zm3.868 5.789c-.363.631-1.768.894-3.652.538q-.324-.061-.665-.146a20.069 20.069 0 0 0 .387-2.682 19.939 19.939 0 0 0 2.137-1.716q.176.183.336.365h0a7.234 7.234 0 0 1 1.403 2.238 1.766 1.766 0 0 1 .054 1.403z" fill="#fff"/></svg>