<svg xmlns="http://www.w3.org/2000/svg" viewBox="0 0 24 24" id="word"><path d="M23.5 2.5H14V1a.5.5 0 0 0-.612-.487l-13 3A.5.5 0 0 0 0 4v17a.5.5 0 0 0 .424.494l13 2a.496.496 0 0 0 .401-.115A.494.494 0 0 0 14 23v-1.5h9.5a.5.5 0 0 0 .5-.5V3a.5.5 0 0 0-.5-.5zM10.981 9.138l-2 7c-.123.427-.84.426-.963 0L6.98 12.503c-.06-.215-.256-.363-.48-.363s-.42.148-.48.363l-1.038 3.634c-.123.427-.84.426-.963 0l-2-7a.5.5 0 0 1 .962-.274l1.038 3.635c.121.43.84.43.961 0l1.038-3.634c.123-.427.84-.426.963 0l1.038 3.635c.121.43.84.43.961 0l1.038-3.634a.5.5 0 0 1 .963.273zM23 20.5h-9v-2h7.5a.5.5 0 0 0 0-1H14v-2h7.5a.5.5 0 0 0 0-1H14v-2h7.5a.5.5 0 0 0 0-1H14v-2h7.5a.5.5 0 0 0 0-1H14v-2h7.5a.5.5 0 0 0 0-1H14v-2h9v17z" fill="white"></path></svg>